<svg width="18" height="11" viewBox="0 0 18 11" fill="none" xmlns="http://www.w3.org/2000/svg">
<path d="M17.9688 9.75C17.9688 10.2188 17.5938 10.5 17.25 10.5C16.9688 10.5 15.9375 10.25 14.9688 9.5C14.125 10.125 13.0625 10.4375 12 10.4375C10.9062 10.4375 9.84375 10.125 9 9.46875C8.125 10.125 7.0625 10.5 6 10.5C4.84375 10.5 3.65625 10.125 2.78125 9.53125C1.84375 10.375 0.96875 10.5 0.71875 10.5C0.28125 10.5 0 10.125 0 9.75C0 9.40625 0.25 9.09375 0.59375 9.03125C1.78125 8.8125 2.0625 7.75 2.75 7.75C2.9375 7.75 3.125 7.84375 3.3125 7.96875C3.875 8.59375 5 9 6 9C7.9375 9 8.28125 7.75 9 7.75C9.71875 7.75 10.0312 9 12 9C13.9062 9 14.25 7.75 14.9688 7.75C15.6875 7.75 15.875 8.75 17.3438 9.03125C17.6875 9.09375 17.9688 9.40625 17.9688 9.75ZM2.96875 4C1.875 4 0.96875 3.125 0.96875 2C0.96875 0.90625 1.84375 0 2.96875 0C4.0625 0 4.96875 0.90625 4.96875 2C4.96875 3.125 4.0625 4 2.96875 4ZM5.25 7.5C4.8125 7.5 4.5 7.1875 4.5 6.75C4.5 5.4375 4.96875 4.1875 5.875 3.21875L6.375 2.625C6.65625 2.3125 8.65625 0.09375 12.0938 0.09375C12.6875 0.09375 13.2812 0.15625 13.875 0.3125L14.875 0.53125C15.2188 0.625 15.4688 0.9375 15.4688 1.28125C15.4688 1.71875 15.0938 2 14.7188 2C14.6562 2 14.5938 2 14.5312 2L13.5312 1.75C13.0625 1.65625 12.5938 1.59375 12.0938 1.59375C10.5312 1.59375 9.46875 2.1875 9.34375 2.25L13.2188 5.71875C13.375 5.84375 13.4688 6.0625 13.4688 6.28125C13.4688 6.6875 13.125 7 12.7188 7C12.5625 7 12.375 6.9375 12.25 6.8125L8.0625 3.125C7.875 3.28125 7.6875 3.4375 7.53125 3.625L6.96875 4.21875C6.34375 4.9375 6 5.8125 6 6.75C6 7.1875 5.65625 7.5 5.25 7.5Z" fill="white"/>
</svg>
