<svg width="95" height="91" viewBox="0 0 95 91" fill="none" xmlns="http://www.w3.org/2000/svg">
<g clip-path="url(#clip0_344_763)">
<path d="M2.5008 66.2158C1.75676 66.2158 1.15222 66.8247 1.15222 67.5729C1.15222 68.3212 1.75676 68.9301 2.5008 68.9301C3.24485 68.9301 3.84938 68.3212 3.84938 67.5729C3.84938 66.8247 3.24485 66.2158 2.5008 66.2158Z" fill="#CDA65C"/>
<path d="M25.5765 68.9301C26.3213 68.9301 26.9251 68.3225 26.9251 67.5729C26.9251 66.8234 26.3213 66.2158 25.5765 66.2158C24.8317 66.2158 24.2279 66.8234 24.2279 67.5729C24.2279 68.3225 24.8317 68.9301 25.5765 68.9301Z" fill="#CDA65C"/>
<path d="M14.0387 66.2158C13.2946 66.2158 12.6901 66.8247 12.6901 67.5729C12.6901 68.3212 13.2946 68.9301 14.0387 68.9301C14.7827 68.9301 15.3873 68.3212 15.3873 67.5729C15.3873 66.8247 14.7827 66.2158 14.0387 66.2158Z" fill="#CDA65C"/>
<path d="M13.8475 55.1826C13.1034 55.1826 12.4989 55.7915 12.4989 56.5397C12.4989 57.288 13.1034 57.8969 13.8475 57.8969C14.5915 57.8969 15.1961 57.288 15.1961 56.5397C15.1961 55.7915 14.5915 55.1826 13.8475 55.1826Z" fill="#CDA65C"/>
<path d="M2.30964 55.1826C1.5656 55.1826 0.96106 55.7915 0.96106 56.5397C0.96106 57.288 1.5656 57.8969 2.30964 57.8969C3.05368 57.8969 3.65822 57.288 3.65822 56.5397C3.65822 55.7915 3.05368 55.1826 2.30964 55.1826Z" fill="#CDA65C"/>
<path d="M36.9232 55.1826C36.1792 55.1826 35.5746 55.7915 35.5746 56.5397C35.5746 57.288 36.1792 57.8969 36.9232 57.8969C37.6672 57.8969 38.2718 57.288 38.2718 56.5397C38.2718 55.7915 37.6672 55.1826 36.9232 55.1826Z" fill="#CDA65C"/>
<path d="M25.3854 55.1826C24.6413 55.1826 24.0368 55.7915 24.0368 56.5397C24.0368 57.288 24.6413 57.8969 25.3854 57.8969C26.1294 57.8969 26.7339 57.288 26.7339 56.5397C26.7339 55.7915 26.1294 55.1826 25.3854 55.1826Z" fill="#CDA65C"/>
<path d="M2.5008 88.291C1.75676 88.291 1.15222 88.8999 1.15222 89.6481C1.15222 90.3964 1.75676 91.0053 2.5008 91.0053C3.24485 91.0053 3.84938 90.3964 3.84938 89.6481C3.84938 88.8999 3.24485 88.291 2.5008 88.291Z" fill="#CDA65C"/>
<path d="M13.8475 77.2529C13.1034 77.2529 12.4989 77.8618 12.4989 78.6101C12.4989 79.3583 13.1034 79.9672 13.8475 79.9672C14.5915 79.9672 15.1961 79.3583 15.1961 78.6101C15.1961 77.8618 14.5915 77.2529 13.8475 77.2529Z" fill="#CDA65C"/>
<path d="M2.30964 77.2529C1.5656 77.2529 0.96106 77.8618 0.96106 78.6101C0.96106 79.3583 1.5656 79.9672 2.30964 79.9672C3.05368 79.9672 3.65822 79.3583 3.65822 78.6101C3.65822 77.8618 3.05368 77.2529 2.30964 77.2529Z" fill="#CDA65C"/>
<path d="M48.2699 44.1455C47.5258 44.1455 46.9213 44.7544 46.9213 45.5026C46.9213 46.2509 47.5258 46.8598 48.2699 46.8598C49.0139 46.8598 49.6185 46.2509 49.6185 45.5026C49.6185 44.7544 49.0139 44.1455 48.2699 44.1455Z" fill="#CDA65C"/>
<path d="M25.1942 44.1455C24.4501 44.1455 23.8456 44.7544 23.8456 45.5026C23.8456 46.2509 24.4501 46.8598 25.1942 46.8598C25.9382 46.8598 26.5427 46.2509 26.5427 45.5026C26.5427 44.7544 25.9382 44.1455 25.1942 44.1455Z" fill="#CDA65C"/>
<path d="M36.732 46.8598C37.4768 46.8598 38.0806 46.2522 38.0806 45.5026C38.0806 44.7531 37.4768 44.1455 36.732 44.1455C35.9872 44.1455 35.3835 44.7531 35.3835 45.5026C35.3835 46.2522 35.9872 46.8598 36.732 46.8598Z" fill="#CDA65C"/>
<path d="M13.6511 44.1455C12.9071 44.1455 12.3026 44.7544 12.3026 45.5026C12.3026 46.2509 12.9071 46.8598 13.6511 46.8598C14.3952 46.8598 14.9997 46.2509 14.9997 45.5026C14.9997 44.7544 14.4003 44.1455 13.6511 44.1455Z" fill="#CDA65C"/>
<path d="M2.11329 44.1455C1.36925 44.1455 0.764709 44.7544 0.764709 45.5026C0.764709 46.2509 1.36925 46.8598 2.11329 46.8598C2.85733 46.8598 3.46187 46.2509 3.46187 45.5026C3.46187 44.7544 2.85733 44.1455 2.11329 44.1455Z" fill="#CDA65C"/>
<path d="M48.0735 33.1074C47.3295 33.1074 46.7249 33.7163 46.7249 34.4646C46.7249 35.2128 47.3295 35.8217 48.0735 35.8217C48.8176 35.8217 49.4221 35.2128 49.4221 34.4646C49.4221 33.7163 48.8176 33.1074 48.0735 33.1074Z" fill="#CDA65C"/>
<path d="M36.5357 33.1074C35.7916 33.1074 35.1871 33.7163 35.1871 34.4646C35.1871 35.2128 35.7916 35.8217 36.5357 35.8217C37.2797 35.8217 37.8843 35.2128 37.8843 34.4646C37.8843 33.7163 37.2797 33.1074 36.5357 33.1074Z" fill="#CDA65C"/>
<path d="M24.9978 33.1074C24.2538 33.1074 23.6492 33.7163 23.6492 34.4646C23.6492 35.2128 24.2538 35.8217 24.9978 35.8217C25.7419 35.8217 26.3464 35.2128 26.3464 34.4646C26.3464 33.7163 25.7419 33.1074 24.9978 33.1074Z" fill="#CDA65C"/>
<path d="M59.6166 33.1074C58.8725 33.1074 58.268 33.7163 58.268 34.4646C58.268 35.2128 58.8725 35.8217 59.6166 35.8217C60.3606 35.8217 60.9651 35.2128 60.9651 34.4646C60.9651 33.7163 60.3606 33.1074 59.6166 33.1074Z" fill="#CDA65C"/>
<path d="M1.92213 33.1074C1.17808 33.1074 0.573547 33.7163 0.573547 34.4646C0.573547 35.2128 1.17808 35.8217 1.92213 35.8217C2.66617 35.8217 3.27071 35.2128 3.27071 34.4646C3.27071 33.7163 2.66617 33.1074 1.92213 33.1074Z" fill="#CDA65C"/>
<path d="M13.46 33.1074C12.7159 33.1074 12.1114 33.7163 12.1114 34.4646C12.1114 35.2128 12.7159 35.8217 13.46 35.8217C14.204 35.8217 14.8085 35.2128 14.8085 34.4646C14.8085 33.7163 14.204 33.1074 13.46 33.1074Z" fill="#CDA65C"/>
<path d="M1.73094 22.0703C0.986891 22.0703 0.382355 22.6792 0.382355 23.4274C0.382355 24.1757 0.986891 24.7846 1.73094 24.7846C2.47498 24.7846 3.07952 24.1757 3.07952 23.4274C3.07952 22.6792 2.47498 22.0703 1.73094 22.0703Z" fill="#CDA65C"/>
<path d="M47.8824 24.7846C48.6272 24.7846 49.2309 24.177 49.2309 23.4274C49.2309 22.6779 48.6272 22.0703 47.8824 22.0703C47.1376 22.0703 46.5338 22.6779 46.5338 23.4274C46.5338 24.177 47.1376 24.7846 47.8824 24.7846Z" fill="#CDA65C"/>
<path d="M70.9581 24.7846C71.7029 24.7846 72.3067 24.177 72.3067 23.4274C72.3067 22.6779 71.7029 22.0703 70.9581 22.0703C70.2133 22.0703 69.6095 22.6779 69.6095 23.4274C69.6095 24.177 70.2133 24.7846 70.9581 24.7846Z" fill="#CDA65C"/>
<path d="M36.3445 22.0703C35.6004 22.0703 34.9959 22.6792 34.9959 23.4274C34.9959 24.1757 35.6004 24.7846 36.3445 24.7846C37.0885 24.7846 37.6931 24.1757 37.6931 23.4274C37.6931 22.6792 37.0885 22.0703 36.3445 22.0703Z" fill="#CDA65C"/>
<path d="M24.8066 22.0703C24.0626 22.0703 23.4581 22.6792 23.4581 23.4274C23.4581 24.1757 24.0626 24.7846 24.8066 24.7846C25.5507 24.7846 26.1552 24.1757 26.1552 23.4274C26.1552 22.6792 25.5507 22.0703 24.8066 22.0703Z" fill="#CDA65C"/>
<path d="M13.2688 22.0703C12.5247 22.0703 11.9202 22.6792 11.9202 23.4274C11.9202 24.1757 12.5247 24.7846 13.2688 24.7846C14.0128 24.7846 14.6174 24.1757 14.6174 23.4274C14.6174 22.6792 14.0128 22.0703 13.2688 22.0703Z" fill="#CDA65C"/>
<path d="M59.4202 22.0703C58.6762 22.0703 58.0716 22.6792 58.0716 23.4274C58.0716 24.1757 58.6762 24.7846 59.4202 24.7846C60.1643 24.7846 60.7688 24.1757 60.7688 23.4274C60.7688 22.6792 60.1643 22.0703 59.4202 22.0703Z" fill="#CDA65C"/>
<path d="M1.53977 13.7465C2.28457 13.7465 2.88835 13.1389 2.88835 12.3894C2.88835 11.6398 2.28457 11.0322 1.53977 11.0322C0.794973 11.0322 0.191193 11.6398 0.191193 12.3894C0.191193 13.1389 0.794973 13.7465 1.53977 13.7465Z" fill="#CDA65C"/>
<path d="M59.229 11.0381C58.485 11.0381 57.8805 11.647 57.8805 12.3952C57.8805 13.1434 58.485 13.7523 59.229 13.7523C59.9731 13.7523 60.5776 13.1434 60.5776 12.3952C60.5776 11.647 59.9731 11.0381 59.229 11.0381Z" fill="#CDA65C"/>
<path d="M13.0776 11.0381C12.3336 11.0381 11.729 11.647 11.729 12.3952C11.729 13.1434 12.3336 13.7523 13.0776 13.7523C13.8217 13.7523 14.4262 13.1434 14.4262 12.3952C14.4262 11.647 13.8217 11.0381 13.0776 11.0381Z" fill="#CDA65C"/>
<path d="M36.1533 11.0381C35.4093 11.0381 34.8047 11.647 34.8047 12.3952C34.8047 13.1434 35.4093 13.7523 36.1533 13.7523C36.8974 13.7523 37.5019 13.1434 37.5019 12.3952C37.5019 11.647 36.8974 11.0381 36.1533 11.0381Z" fill="#CDA65C"/>
<path d="M24.6155 11.0381C23.8714 11.0381 23.2669 11.647 23.2669 12.3952C23.2669 13.1434 23.8714 13.7523 24.6155 13.7523C25.3595 13.7523 25.964 13.1434 25.964 12.3952C25.964 11.647 25.3595 11.0381 24.6155 11.0381Z" fill="#CDA65C"/>
<path d="M47.6912 11.0381C46.9471 11.0381 46.3426 11.647 46.3426 12.3952C46.3426 13.1434 46.9471 13.7523 47.6912 13.7523C48.4352 13.7523 49.0398 13.1434 49.0398 12.3952C49.0398 11.647 48.4352 11.0381 47.6912 11.0381Z" fill="#CDA65C"/>
<path d="M82.3047 11.0381C81.5607 11.0381 80.9561 11.647 80.9561 12.3952C80.9561 13.1434 81.5607 13.7523 82.3047 13.7523C83.0488 13.7523 83.6533 13.1434 83.6533 12.3952C83.6533 11.647 83.0539 11.0381 82.3047 11.0381Z" fill="#CDA65C"/>
<path d="M70.7669 11.0381C70.0228 11.0381 69.4183 11.647 69.4183 12.3952C69.4183 13.1434 70.0228 13.7523 70.7669 13.7523C71.5109 13.7523 72.1155 13.1434 72.1155 12.3952C72.1155 11.647 71.5161 11.0381 70.7669 11.0381Z" fill="#CDA65C"/>
<path d="M12.8864 2.70938C13.6305 2.70938 14.235 2.10048 14.235 1.35225C14.235 0.60402 13.6305 -0.00488281 12.8864 -0.00488281C12.1424 -0.00488281 11.5378 0.60402 11.5378 1.35225C11.5378 2.10048 12.1424 2.70938 12.8864 2.70938Z" fill="#CDA65C"/>
<path d="M1.34858 2.7091C2.09262 2.7091 2.69716 2.1002 2.69716 1.35197C2.69716 0.603742 2.08746 0 1.34858 0C0.609703 0 0 0.608903 0 1.35713C0 2.10536 0.604536 2.71426 1.34858 2.71426V2.7091Z" fill="#CDA65C"/>
<path d="M82.1136 2.71426C82.8584 2.71426 83.4621 2.10665 83.4621 1.35713C83.4621 0.607608 82.8584 0 82.1136 0C81.3688 0 80.765 0.607608 80.765 1.35713C80.765 2.10665 81.3688 2.71426 82.1136 2.71426Z" fill="#CDA65C"/>
<path d="M47.5 2.70938C48.2441 2.70938 48.8486 2.10048 48.8486 1.35225C48.8486 0.60402 48.2441 -0.00488281 47.5 -0.00488281C46.756 -0.00488281 46.1514 0.60402 46.1514 1.35225C46.1514 2.10048 46.756 2.70938 47.5 2.70938Z" fill="#CDA65C"/>
<path d="M59.0379 2.70938C59.7819 2.70938 60.3864 2.10048 60.3864 1.35225C60.3864 0.60402 59.7819 -0.00488281 59.0379 -0.00488281C58.2938 -0.00488281 57.6893 0.60402 57.6893 1.35225C57.6893 2.10048 58.2938 2.70938 59.0379 2.70938Z" fill="#CDA65C"/>
<path d="M70.5757 2.70938C71.3197 2.70938 71.9243 2.10048 71.9243 1.35225C71.9243 0.60402 71.3197 -0.00488281 70.5757 -0.00488281C69.8316 -0.00488281 69.2271 0.60402 69.2271 1.35225C69.2271 2.10048 69.8316 2.70938 70.5757 2.70938Z" fill="#CDA65C"/>
<path d="M24.4243 2.70938C25.1683 2.70938 25.7729 2.10048 25.7729 1.35225C25.7729 0.60402 25.1683 -0.00488281 24.4243 -0.00488281C23.6803 -0.00488281 23.0757 0.60402 23.0757 1.35225C23.0757 2.10048 23.6803 2.70938 24.4243 2.70938Z" fill="#CDA65C"/>
<path d="M93.6514 2.70938C94.3955 2.70938 95 2.10048 95 1.35225C95 0.60402 94.4006 -0.00488281 93.6514 -0.00488281C92.9022 -0.00488281 92.3029 0.60402 92.3029 1.35225C92.3029 2.10048 92.9074 2.70938 93.6514 2.70938Z" fill="#CDA65C"/>
<path d="M35.9621 2.70938C36.7062 2.70938 37.3107 2.10048 37.3107 1.35225C37.3107 0.60402 36.7062 -0.00488281 35.9621 -0.00488281C35.2181 -0.00488281 34.6136 0.60402 34.6136 1.35225C34.6136 2.10048 35.2181 2.70938 35.9621 2.70938Z" fill="#CDA65C"/>
</g>
<defs>
<clipPath id="clip0_344_763">
<rect width="95" height="91" fill="white"/>
</clipPath>
</defs>
</svg>
