<svg width="30" height="312" viewBox="0 0 30 312" fill="none" xmlns="http://www.w3.org/2000/svg">
<g clip-path="url(#clip0_414_1590)">
<path fill-rule="evenodd" clip-rule="evenodd" d="M15.0461 2.20019C15.2252 2.95127 15.3642 3.70602 15.503 4.46006C15.5963 4.96692 15.6896 5.47346 15.7949 5.97832C16.0227 7.06982 16.1515 8.16913 16.2796 9.26264C16.2989 9.42739 16.3182 9.59199 16.3378 9.75644C16.677 11.0101 16.8023 12.2784 16.7123 13.5449C16.5138 14.8439 15.9518 16.1183 15.0461 17.323L14.6155 17.323C13.7098 16.1183 13.1478 14.8439 12.9494 13.5449C12.8593 12.2784 12.9846 11.0101 13.3238 9.75644C13.4736 8.50053 13.6608 7.24457 13.8667 5.97832C14.0726 4.71208 14.316 3.45614 14.6155 2.20019L15.0461 2.20019ZM2.24338 14.8321C2.87808 15.0316 3.48598 15.2508 4.09178 15.4692C4.36138 15.5664 4.63068 15.6635 4.90158 15.7587C5.78148 16.0675 6.62388 16.4175 7.44758 16.7881C7.74728 16.923 8.07678 17.0347 8.40088 17.1445C8.96728 17.3365 9.51708 17.5229 9.86238 17.8176C10.4877 18.3744 10.8183 19.0161 10.8172 19.6706L10.5551 19.8044C9.36508 19.798 8.20528 19.5973 7.22288 19.228C6.58218 19.0194 6.21548 18.6703 5.84838 18.3207C5.68998 18.1699 5.53148 18.019 5.35088 17.8793C4.75188 17.4161 4.17148 16.9426 3.60988 16.4587C3.04828 15.9748 2.50538 15.4807 1.99998 14.9557L2.24338 14.8321ZM26.9185 15.9952C27.2901 15.6828 27.6607 15.3712 28 15.0381L27.7566 14.8939C26.8206 15.1719 25.9221 15.4705 25.0422 15.7793C24.1624 16.0882 23.3013 16.4176 22.4589 16.747C22.2049 16.8463 21.9304 16.9335 21.6561 17.0206C21.0207 17.2225 20.3857 17.4241 20.0065 17.7765C19.3297 18.3153 18.9643 18.954 18.9582 19.6089L19.2016 19.7531C20.3941 19.7635 21.5658 19.5809 22.5712 19.228C23.107 19.0381 23.4459 18.7358 23.7951 18.4242C23.9948 18.2461 24.1979 18.0648 24.4432 17.9C25.1171 17.4471 25.7536 17.0044 26.3152 16.5102C26.5133 16.3359 26.7161 16.1655 26.9185 15.9952Z" fill="#030922" fill-opacity="0.6"/>
</g>
<line x1="15.25" y1="33.0054" x2="15.25" y2="278.005" stroke="#222222" stroke-opacity="0.6" stroke-width="0.5"/>
<g clip-path="url(#clip1_414_1590)">
<path fill-rule="evenodd" clip-rule="evenodd" d="M15.0461 308.811C15.2252 308.059 15.3642 307.305 15.503 306.551C15.5963 306.044 15.6896 305.537 15.7949 305.032C16.0227 303.941 16.1515 302.842 16.2796 301.748C16.2989 301.583 16.3182 301.419 16.3378 301.254C16.677 300.001 16.8023 298.732 16.7123 297.466C16.5138 296.167 15.9518 294.892 15.0461 293.688L14.6155 293.688C13.7098 294.892 13.1478 296.167 12.9494 297.466C12.8593 298.732 12.9846 300.001 13.3238 301.254C13.4736 302.51 13.6608 303.766 13.8667 305.032C14.0726 306.299 14.316 307.555 14.6155 308.811L15.0461 308.811ZM2.24338 296.179C2.87808 295.979 3.48598 295.76 4.09178 295.542C4.36138 295.444 4.63068 295.347 4.90158 295.252C5.78148 294.943 6.62388 294.593 7.44758 294.223C7.74728 294.088 8.07678 293.976 8.40088 293.866C8.96728 293.674 9.51708 293.488 9.86238 293.193C10.4877 292.636 10.8183 291.995 10.8172 291.34L10.5551 291.206C9.36508 291.213 8.20528 291.413 7.22288 291.783C6.58218 291.991 6.21548 292.34 5.84838 292.69C5.68998 292.841 5.53148 292.992 5.35088 293.131C4.75188 293.595 4.17148 294.068 3.60988 294.552C3.04828 295.036 2.50538 295.53 1.99998 296.055L2.24338 296.179ZM26.9186 295.016C27.2901 295.328 27.6607 295.64 28 295.973L27.7566 296.117C26.8206 295.839 25.9221 295.54 25.0422 295.231C24.1624 294.923 23.3013 294.593 22.4589 294.264C22.2049 294.164 21.9305 294.077 21.6561 293.99C21.0207 293.788 20.3857 293.587 20.0065 293.234C19.3297 292.695 18.9643 292.057 18.9582 291.402L19.2016 291.258C20.3941 291.247 21.5658 291.43 22.5712 291.783C23.107 291.973 23.4459 292.275 23.7951 292.586C23.9948 292.765 24.1979 292.946 24.4432 293.111C25.1171 293.564 25.7536 294.006 26.3152 294.501C26.5133 294.675 26.7161 294.845 26.9186 295.016Z" fill="#030922" fill-opacity="0.6"/>
</g>
<defs>
<clipPath id="clip0_414_1590">
<rect width="22.0053" height="30" fill="white" transform="translate(30) rotate(90)"/>
</clipPath>
<clipPath id="clip1_414_1590">
<rect width="22.0053" height="30" fill="white" transform="matrix(4.37114e-08 -1 -1 -4.37114e-08 30 311.011)"/>
</clipPath>
</defs>
</svg>
