<svg width="134" height="128" viewBox="0 0 134 128" fill="none" xmlns="http://www.w3.org/2000/svg">
<g clip-path="url(#clip0_54_744)">
<path d="M130.473 93.1384C131.522 93.1384 132.375 93.9949 132.375 95.0474C132.375 96.0998 131.522 96.9563 130.473 96.9563C129.423 96.9563 128.57 96.0998 128.57 95.0474C128.57 93.9949 129.423 93.1384 130.473 93.1384Z" fill="#FF5722"/>
<path d="M97.9237 96.9563C96.8731 96.9563 96.0214 96.1016 96.0214 95.0474C96.0214 93.9931 96.8731 93.1384 97.9237 93.1384C98.9742 93.1384 99.8259 93.9931 99.8259 95.0474C99.8259 96.1016 98.9742 96.9563 97.9237 96.9563Z" fill="#FF5722"/>
<path d="M114.198 93.1384C115.248 93.1384 116.1 93.9949 116.1 95.0474C116.1 96.0998 115.248 96.9563 114.198 96.9563C113.149 96.9563 112.296 96.0998 112.296 95.0474C112.296 93.9949 113.149 93.1384 114.198 93.1384Z" fill="#FF5722"/>
<path d="M114.468 77.6202C115.517 77.6202 116.37 78.4767 116.37 79.5291C116.37 80.5816 115.517 81.438 114.468 81.438C113.418 81.438 112.566 80.5816 112.566 79.5291C112.566 78.4767 113.418 77.6202 114.468 77.6202Z" fill="#FF5722"/>
<path d="M130.742 77.6202C131.792 77.6202 132.644 78.4767 132.644 79.5291C132.644 80.5816 131.792 81.438 130.742 81.438C129.693 81.438 128.84 80.5816 128.84 79.5291C128.84 78.4767 129.693 77.6202 130.742 77.6202Z" fill="#FF5722"/>
<path d="M81.9188 77.6202C82.9683 77.6202 83.821 78.4767 83.821 79.5291C83.821 80.5816 82.9683 81.438 81.9188 81.438C80.8693 81.438 80.0166 80.5816 80.0166 79.5291C80.0166 78.4767 80.8693 77.6202 81.9188 77.6202Z" fill="#FF5722"/>
<path d="M98.1933 77.6202C99.2428 77.6202 100.096 78.4767 100.096 79.5291C100.096 80.5816 99.2428 81.438 98.1933 81.438C97.1438 81.438 96.2911 80.5816 96.2911 79.5291C96.2911 78.4767 97.1438 77.6202 98.1933 77.6202Z" fill="#FF5722"/>
<path d="M130.473 124.189C131.522 124.189 132.375 125.046 132.375 126.098C132.375 127.151 131.522 128.007 130.473 128.007C129.423 128.007 128.57 127.151 128.57 126.098C128.57 125.046 129.423 124.189 130.473 124.189Z" fill="#FF5722"/>
<path d="M114.468 108.664C115.517 108.664 116.37 109.52 116.37 110.573C116.37 111.625 115.517 112.482 114.468 112.482C113.418 112.482 112.566 111.625 112.566 110.573C112.566 109.52 113.418 108.664 114.468 108.664Z" fill="#FF5722"/>
<path d="M130.742 108.664C131.792 108.664 132.644 109.52 132.644 110.573C132.644 111.625 131.792 112.482 130.742 112.482C129.693 112.482 128.84 111.625 128.84 110.573C128.84 109.52 129.693 108.664 130.742 108.664Z" fill="#FF5722"/>
<path d="M65.9141 62.0947C66.9636 62.0947 67.8163 62.9512 67.8163 64.0036C67.8163 65.0561 66.9636 65.9126 65.9141 65.9126C64.8646 65.9126 64.0119 65.0561 64.0119 64.0036C64.0119 62.9512 64.8646 62.0947 65.9141 62.0947Z" fill="#FF5722"/>
<path d="M98.463 62.0947C99.5125 62.0947 100.365 62.9512 100.365 64.0036C100.365 65.0561 99.5125 65.9126 98.463 65.9126C97.4135 65.9126 96.5608 65.0561 96.5608 64.0036C96.5608 62.9512 97.4135 62.0947 98.463 62.0947Z" fill="#FF5722"/>
<path d="M82.1885 65.9126C81.1379 65.9126 80.2863 65.0579 80.2863 64.0036C80.2863 62.9494 81.1379 62.0947 82.1885 62.0947C83.2391 62.0947 84.0907 62.9494 84.0907 64.0036C84.0907 65.0579 83.2391 65.9126 82.1885 65.9126Z" fill="#FF5722"/>
<path d="M114.745 62.0947C115.794 62.0947 116.647 62.9512 116.647 64.0036C116.647 65.0561 115.794 65.9126 114.745 65.9126C113.695 65.9126 112.842 65.0561 112.842 64.0036C112.842 62.9512 113.688 62.0947 114.745 62.0947Z" fill="#FF5722"/>
<path d="M131.019 62.0947C132.069 62.0947 132.921 62.9512 132.921 64.0036C132.921 65.0561 132.069 65.9126 131.019 65.9126C129.97 65.9126 129.117 65.0561 129.117 64.0036C129.117 62.9512 129.97 62.0947 131.019 62.0947Z" fill="#FF5722"/>
<path d="M66.191 46.5692C67.2405 46.5692 68.0932 47.4257 68.0932 48.4781C68.0932 49.5306 67.2405 50.3871 66.191 50.3871C65.1415 50.3871 64.2888 49.5306 64.2888 48.4781C64.2888 47.4257 65.1415 46.5692 66.191 46.5692Z" fill="#FF5722"/>
<path d="M82.4655 46.5692C83.515 46.5692 84.3677 47.4257 84.3677 48.4781C84.3677 49.5306 83.515 50.3871 82.4655 50.3871C81.416 50.3871 80.5633 49.5306 80.5633 48.4781C80.5633 47.4257 81.416 46.5692 82.4655 46.5692Z" fill="#FF5722"/>
<path d="M98.7399 46.5692C99.7894 46.5692 100.642 47.4257 100.642 48.4781C100.642 49.5306 99.7894 50.3871 98.7399 50.3871C97.6904 50.3871 96.8377 49.5306 96.8377 48.4781C96.8377 47.4257 97.6904 46.5692 98.7399 46.5692Z" fill="#FF5722"/>
<path d="M49.9093 46.5692C50.9588 46.5692 51.8115 47.4257 51.8115 48.4781C51.8115 49.5306 50.9588 50.3871 49.9093 50.3871C48.8598 50.3871 48.0071 49.5306 48.0071 48.4781C48.0071 47.4257 48.8598 46.5692 49.9093 46.5692Z" fill="#FF5722"/>
<path d="M131.289 46.5692C132.338 46.5692 133.191 47.4257 133.191 48.4781C133.191 49.5306 132.338 50.3871 131.289 50.3871C130.239 50.3871 129.387 49.5306 129.387 48.4781C129.387 47.4257 130.239 46.5692 131.289 46.5692Z" fill="#FF5722"/>
<path d="M115.014 46.5692C116.064 46.5692 116.917 47.4257 116.917 48.4781C116.917 49.5306 116.064 50.3871 115.014 50.3871C113.965 50.3871 113.112 49.5306 113.112 48.4781C113.112 47.4257 113.965 46.5692 115.014 46.5692Z" fill="#FF5722"/>
<path d="M131.558 31.0437C132.608 31.0437 133.461 31.9002 133.461 32.9527C133.461 34.0051 132.608 34.8616 131.558 34.8616C130.509 34.8616 129.656 34.0051 129.656 32.9527C129.656 31.9002 130.509 31.0437 131.558 31.0437Z" fill="#FF5722"/>
<path d="M66.4607 34.8616C65.4101 34.8616 64.5585 34.0069 64.5585 32.9527C64.5585 31.8984 65.4101 31.0437 66.4607 31.0437C67.5113 31.0437 68.3629 31.8984 68.3629 32.9527C68.3629 34.0069 67.5113 34.8616 66.4607 34.8616Z" fill="#FF5722"/>
<path d="M33.9118 34.8616C32.8612 34.8616 32.0095 34.0069 32.0095 32.9527C32.0095 31.8984 32.8612 31.0437 33.9118 31.0437C34.9623 31.0437 35.814 31.8984 35.814 32.9527C35.814 34.0069 34.9623 34.8616 33.9118 34.8616Z" fill="#FF5722"/>
<path d="M82.7351 31.0437C83.7846 31.0437 84.6373 31.9002 84.6373 32.9527C84.6373 34.0051 83.7846 34.8616 82.7351 34.8616C81.6856 34.8616 80.8329 34.0051 80.8329 32.9527C80.8329 31.9002 81.6856 31.0437 82.7351 31.0437Z" fill="#FF5722"/>
<path d="M99.0096 31.0437C100.059 31.0437 100.912 31.9002 100.912 32.9527C100.912 34.0051 100.059 34.8616 99.0096 34.8616C97.9601 34.8616 97.1074 34.0051 97.1074 32.9527C97.1074 31.9002 97.9601 31.0437 99.0096 31.0437Z" fill="#FF5722"/>
<path d="M115.284 31.0437C116.334 31.0437 117.186 31.9002 117.186 32.9527C117.186 34.0051 116.334 34.8616 115.284 34.8616C114.235 34.8616 113.382 34.0051 113.382 32.9527C113.382 31.9002 114.235 31.0437 115.284 31.0437Z" fill="#FF5722"/>
<path d="M50.1862 31.0437C51.2357 31.0437 52.0884 31.9002 52.0884 32.9527C52.0884 34.0051 51.2357 34.8616 50.1862 34.8616C49.1367 34.8616 48.284 34.0051 48.284 32.9527C48.284 31.9002 49.1367 31.0437 50.1862 31.0437Z" fill="#FF5722"/>
<path d="M131.828 19.3361C130.778 19.3361 129.926 18.4814 129.926 17.4272C129.926 16.3729 130.778 15.5182 131.828 15.5182C132.879 15.5182 133.73 16.3729 133.73 17.4272C133.73 18.4814 132.879 19.3361 131.828 19.3361Z" fill="#FF5722"/>
<path d="M50.4559 15.5255C51.5054 15.5255 52.3581 16.382 52.3581 17.4344C52.3581 18.4869 51.5054 19.3433 50.4559 19.3433C49.4064 19.3433 48.5537 18.4869 48.5537 17.4344C48.5537 16.382 49.4064 15.5255 50.4559 15.5255Z" fill="#FF5722"/>
<path d="M115.554 15.5255C116.603 15.5255 117.456 16.382 117.456 17.4344C117.456 18.4869 116.603 19.3433 115.554 19.3433C114.504 19.3433 113.651 18.4869 113.651 17.4344C113.651 16.382 114.504 15.5255 115.554 15.5255Z" fill="#FF5722"/>
<path d="M83.0048 15.5255C84.0543 15.5255 84.907 16.382 84.907 17.4344C84.907 18.4869 84.0543 19.3433 83.0048 19.3433C81.9553 19.3433 81.1026 18.4869 81.1026 17.4344C81.1026 16.382 81.9553 15.5255 83.0048 15.5255Z" fill="#FF5722"/>
<path d="M99.2792 15.5255C100.329 15.5255 101.181 16.382 101.181 17.4344C101.181 18.4869 100.329 19.3433 99.2792 19.3433C98.2298 19.3433 97.377 18.4869 97.377 17.4344C97.377 16.382 98.2298 15.5255 99.2792 15.5255Z" fill="#FF5722"/>
<path d="M66.7304 15.5255C67.7799 15.5255 68.6326 16.382 68.6326 17.4344C68.6326 18.4869 67.7799 19.3433 66.7304 19.3433C65.6809 19.3433 64.8282 18.4869 64.8282 17.4344C64.8282 16.382 65.6809 15.5255 66.7304 15.5255Z" fill="#FF5722"/>
<path d="M17.907 15.5255C18.9565 15.5255 19.8092 16.382 19.8092 17.4344C19.8092 18.4869 18.9565 19.3433 17.907 19.3433C16.8575 19.3433 16.0048 18.4869 16.0048 17.4344C16.0048 16.382 16.8502 15.5255 17.907 15.5255Z" fill="#FF5722"/>
<path d="M34.1814 15.5255C35.2309 15.5255 36.0836 16.382 36.0836 17.4344C36.0836 18.4869 35.2309 19.3433 34.1814 19.3433C33.1319 19.3433 32.2792 18.4869 32.2792 17.4344C32.2792 16.382 33.1246 15.5255 34.1814 15.5255Z" fill="#FF5722"/>
<path d="M115.823 3.8106C114.774 3.8106 113.921 2.95412 113.921 1.90167C113.921 0.849215 114.774 -0.00726318 115.823 -0.00726318C116.873 -0.00726318 117.726 0.849215 117.726 1.90167C117.726 2.95412 116.873 3.8106 115.823 3.8106Z" fill="#FF5722"/>
<path d="M132.098 3.8106C131.048 3.8106 130.196 2.95413 130.196 1.90167C130.196 0.84922 131.056 0 132.098 0C133.14 0 134 0.856479 134 1.90893C134 2.96138 133.147 3.81786 132.098 3.81786V3.8106Z" fill="#FF5722"/>
<path d="M18.1766 3.81786C17.1261 3.81786 16.2744 2.9632 16.2744 1.90893C16.2744 0.854658 17.1261 0 18.1766 0C19.2272 0 20.0789 0.854658 20.0789 1.90893C20.0789 2.9632 19.2272 3.81786 18.1766 3.81786Z" fill="#FF5722"/>
<path d="M67 3.8106C65.9505 3.8106 65.0978 2.95412 65.0978 1.90167C65.0978 0.849215 65.9505 -0.00726318 67 -0.00726318C68.0495 -0.00726318 68.9022 0.849215 68.9022 1.90167C68.9022 2.95412 68.0495 3.8106 67 3.8106Z" fill="#FF5722"/>
<path d="M50.7255 3.8106C49.676 3.8106 48.8233 2.95412 48.8233 1.90167C48.8233 0.849215 49.676 -0.00726318 50.7255 -0.00726318C51.775 -0.00726318 52.6277 0.849215 52.6277 1.90167C52.6277 2.95412 51.775 3.8106 50.7255 3.8106Z" fill="#FF5722"/>
<path d="M34.4511 3.8106C33.4016 3.8106 32.5489 2.95412 32.5489 1.90167C32.5489 0.849215 33.4016 -0.00726318 34.4511 -0.00726318C35.5006 -0.00726318 36.3533 0.849215 36.3533 1.90167C36.3533 2.95412 35.5006 3.8106 34.4511 3.8106Z" fill="#FF5722"/>
<path d="M99.5489 3.8106C98.4994 3.8106 97.6467 2.95412 97.6467 1.90167C97.6467 0.849215 98.4994 -0.00726318 99.5489 -0.00726318C100.598 -0.00726318 101.451 0.849215 101.451 1.90167C101.451 2.95412 100.598 3.8106 99.5489 3.8106Z" fill="#FF5722"/>
<path d="M1.90223 3.8106C0.85274 3.8106 2.59876e-05 2.95412 2.59876e-05 1.90167C2.59876e-05 0.849215 0.845452 -0.00726318 1.90223 -0.00726318C2.95902 -0.00726318 3.80444 0.849215 3.80444 1.90167C3.80444 2.95412 2.95173 3.8106 1.90223 3.8106Z" fill="#FF5722"/>
<path d="M83.2744 3.8106C82.2249 3.8106 81.3722 2.95412 81.3722 1.90167C81.3722 0.849215 82.2249 -0.00726318 83.2744 -0.00726318C84.3239 -0.00726318 85.1766 0.849215 85.1766 1.90167C85.1766 2.95412 84.3239 3.8106 83.2744 3.8106Z" fill="#FF5722"/>
</g>
<defs>
<clipPath id="clip0_54_744">
<rect width="134" height="128" fill="white" transform="matrix(-1 0 0 1 134 0)"/>
</clipPath>
</defs>
</svg>
