<svg width="18" height="16" viewBox="0 0 18 16" fill="none" xmlns="http://www.w3.org/2000/svg">
<path d="M4.21875 7.25C1.40625 4.4375 0.96875 4.21875 1 3.1875C1 2.6875 1.1875 2.15625 1.5625 1.78125L2.75 0.59375C3.125 0.21875 3.65625 0 4.15625 0C4.65625 0 5.1875 0.21875 5.5625 0.59375L8.6875 3.71875L7.625 4.78125L6.96875 4.09375L5.0625 5.96875L5.75 6.65625L5.4375 6.96875C4.96875 7.03125 4.5625 7.125 4.21875 7.25ZM15.5625 10.5937C15.8438 10.875 16.0312 11.2187 16.125 11.5937L16.9688 15.4062C16.9688 15.4375 17 15.5 17 15.5312C17 15.7812 16.75 16 16.5 16C16.4688 16 16.4063 16 16.4063 16C16.4063 16 13.7813 15.4375 12.5938 15.1562C12.2188 15.0937 11.9063 14.9062 11.625 14.625L10.6875 13.6875C10.8125 13.3125 10.9063 12.9375 10.9375 12.5312L11.3125 12.1875L12.6875 13.5625C12.7813 13.6875 12.6563 13.6562 15.1563 14.2187L14.6563 11.9062C14.625 11.8125 14.5938 11.7187 14.5 11.6562L13.1563 10.3125L14.2188 9.25L15.5625 10.5937ZM15.5625 0C16.9062 0 18 1.09375 18 2.40625C18 3.0625 17.7188 3.65625 17.25 4.125L9.40625 11.875C9.4375 11.9375 9.4375 11.9687 9.4375 12.0312C9.4375 14.4687 7.4375 16 3 16H1.4375C0.625 16 0 15.375 0 14.5625C0 13.7812 0.625 13.125 1.4375 13.125C2 13.125 2.375 12.8438 2.375 12.375C2.375 12.3125 2.375 12.2188 2.375 12C2.375 10.5 3.53125 8.46875 5.84375 8.46875C5.90625 8.46875 5.96875 8.46875 6.0625 8.46875L13.875 0.71875C14.3125 0.25 14.9375 0 15.5625 0ZM7.9375 12.0312C7.9375 11.875 7.9375 11.6875 7.90625 11.5L6.4375 10.0312C6.28125 10 6.09375 9.96875 5.84375 9.96875C4.75 9.96875 3.875 10.9062 3.875 12C3.875 12.1562 3.875 12.2188 3.875 12.375C3.875 13.375 3.25 14.2188 2.28125 14.5H3C6.6875 14.5 7.9375 13.5 7.9375 12.0312ZM16.2188 3.0625C16.375 2.875 16.5 2.65625 16.5 2.40625C16.5 1.90625 16.0938 1.5 15.5625 1.5C15.3125 1.5 15.0938 1.625 14.9062 1.78125L8.78125 7.875L10.0625 9.15625L16.2188 3.0625Z" fill="black" fill-opacity="0.5"/>
</svg>
