<svg width="18" height="20" viewBox="0 0 18 20" fill="none" xmlns="http://www.w3.org/2000/svg">
<path fill-rule="evenodd" clip-rule="evenodd" d="M17.7998 9.96619C17.0489 9.83485 16.2943 9.73291 15.5405 9.63113C15.0337 9.56271 14.5273 9.49429 14.0226 9.41707C12.9313 9.25001 11.8323 9.15556 10.7391 9.06162C10.5743 9.04747 10.4098 9.03331 10.2454 9.01894C8.99203 8.77019 7.72402 8.67831 6.45785 8.74431C5.15912 8.88987 3.88503 9.30201 2.6806 9.96619V10.282C3.88503 10.9461 5.15912 11.3583 6.45785 11.5038C7.72402 11.5698 8.99203 11.478 10.2454 11.2292C11.501 11.1194 12.7566 10.9821 14.0226 10.8311C15.2885 10.6801 16.5442 10.5016 17.7998 10.282V9.96619ZM5.17092 19.3548C4.97146 18.8894 4.75234 18.4436 4.53395 17.9993C4.43678 17.8016 4.33969 17.6041 4.24458 17.4055C3.93584 16.7602 3.5859 16.1425 3.21542 15.5384C3.08056 15.3186 2.96887 15.077 2.85909 14.8393C2.6671 14.424 2.48076 14.0208 2.18618 13.7676C1.62944 13.309 0.987917 13.0666 0.333565 13.0674L0.199804 13.2596C0.206257 14.1323 0.406898 14.9828 0.776131 15.7032C0.984617 16.173 1.33368 16.442 1.68312 16.7112C1.83389 16.8273 1.98481 16.9436 2.12444 17.076C2.58754 17.5153 3.06098 17.9409 3.54476 18.3527C4.02846 18.7646 4.52251 19.1627 5.04736 19.5333L5.17092 19.3548ZM4.00808 1.25971C4.3204 0.987238 4.63192 0.715442 4.965 0.466644L5.1091 0.645116C4.83117 1.33152 4.5327 1.99046 4.22397 2.63568C3.91516 3.2809 3.58582 3.91239 3.25648 4.53015C3.15719 4.71641 3.07007 4.91765 2.98295 5.11882C2.78114 5.58483 2.57954 6.05044 2.22725 6.32852C1.68855 6.82488 1.05003 7.09284 0.395239 7.09731L0.251137 6.91882C0.240725 6.04432 0.423252 5.18503 0.776058 4.44778C0.965918 4.05483 1.2682 3.8063 1.57964 3.55025C1.75777 3.40377 1.93898 3.25482 2.10376 3.07498C2.55659 2.58076 2.99916 2.11401 3.4932 1.70217C3.66744 1.5569 3.83787 1.4082 4.00808 1.25971Z" fill="#030922"/>
</svg>
