<svg width="27" height="17" viewBox="0 0 27 17" fill="none" xmlns="http://www.w3.org/2000/svg">
<path d="M26.9531 15.125C26.9531 15.8281 26.3906 16.25 25.875 16.25C25.4531 16.25 23.9062 15.875 22.4531 14.75C21.1875 15.6875 19.5938 16.1562 18 16.1562C16.3594 16.1562 14.7656 15.6875 13.5 14.7031C12.1875 15.6875 10.5938 16.25 9 16.25C7.26562 16.25 5.48438 15.6875 4.17188 14.7969C2.76562 16.0625 1.45312 16.25 1.07812 16.25C0.421875 16.25 0 15.6875 0 15.125C0 14.6094 0.375 14.1406 0.890625 14.0469C2.67188 13.7188 3.09375 12.125 4.125 12.125C4.40625 12.125 4.6875 12.2656 4.96875 12.4531C5.8125 13.3906 7.5 14 9 14C11.9062 14 12.4219 12.125 13.5 12.125C14.5781 12.125 15.0469 14 18 14C20.8594 14 21.375 12.125 22.4531 12.125C23.5312 12.125 23.8125 13.625 26.0156 14.0469C26.5312 14.1406 26.9531 14.6094 26.9531 15.125ZM4.45312 6.5C2.8125 6.5 1.45312 5.1875 1.45312 3.5C1.45312 1.85938 2.76562 0.5 4.45312 0.5C6.09375 0.5 7.45312 1.85938 7.45312 3.5C7.45312 5.1875 6.09375 6.5 4.45312 6.5ZM7.875 11.75C7.21875 11.75 6.75 11.2812 6.75 10.625C6.75 8.65625 7.45312 6.78125 8.8125 5.32812L9.5625 4.4375C9.98438 3.96875 12.9844 0.640625 18.1406 0.640625C19.0312 0.640625 19.9219 0.734375 20.8125 0.96875L22.3125 1.29688C22.8281 1.4375 23.2031 1.90625 23.2031 2.42188C23.2031 3.07812 22.6406 3.5 22.0781 3.5C21.9844 3.5 21.8906 3.5 21.7969 3.5L20.2969 3.125C19.5938 2.98438 18.8906 2.89062 18.1406 2.89062C15.7969 2.89062 14.2031 3.78125 14.0156 3.875L19.8281 9.07812C20.0625 9.26562 20.2031 9.59375 20.2031 9.92188C20.2031 10.5312 19.6875 11 19.0781 11C18.8438 11 18.5625 10.9062 18.375 10.7188L12.0938 5.1875C11.8125 5.42188 11.5312 5.65625 11.2969 5.9375L10.4531 6.82812C9.51562 7.90625 9 9.21875 9 10.625C9 11.2812 8.48438 11.75 7.875 11.75Z" fill="#222222"/>
</svg>
