<svg width="28" height="25" viewBox="0 0 28 25" fill="none" xmlns="http://www.w3.org/2000/svg">
<path d="M22.7031 8.67969C24.5312 8.67969 28 10.1797 28 12.4297C28 14.7266 24.5312 16.1797 22.75 16.1797H18.5312L13.8438 23.7266C13.5625 24.1484 13.0938 24.4297 12.5312 24.4297H9.48438C9.01562 24.4297 8.54688 24.2422 8.21875 23.8672C7.9375 23.4922 7.84375 22.9766 7.98438 22.5547L10 16.1797H7.32812L5.54688 18.6172C5.26562 18.9922 4.84375 19.1797 4.32812 19.1797H2.45312C2.03125 19.1797 1.5625 18.9922 1.28125 18.6172C1 18.2422 0.90625 17.7734 1 17.3516L2.45312 12.4297L1.04688 7.60156C0.90625 7.13281 1 6.66406 1.28125 6.28906C1.5625 5.91406 2.03125 5.67969 2.45312 5.67969H4.32812C4.84375 5.67969 5.26562 5.91406 5.54688 6.28906L7.32812 8.67969H10.0469L8.03125 2.39844C7.89062 1.92969 7.98438 1.41406 8.26562 1.03906C8.54688 0.664062 9.01562 0.429688 9.48438 0.429688H12.5312C13.0469 0.429688 13.6094 0.757812 13.8438 1.22656L18.4844 8.67969H22.7031ZM22.75 14.6797C24.2031 14.6797 26.5 13.5078 26.5 12.4297C26.5 11.3984 24.2031 10.1797 22.75 10.1797H17.6875L12.5312 1.92969H9.48438L12.0625 10.1797H6.57812L4.375 7.17969H2.45312L4 12.4297L2.40625 17.7266L4.32812 17.6797L6.57812 14.6797H12.0625L9.48438 22.9766L12.5312 22.9297L17.6875 14.6797H22.75Z" fill="#222222"/>
</svg>
