<svg width="24" height="24" viewBox="0 0 24 24" fill="none" xmlns="http://www.w3.org/2000/svg">
<path d="M12 0.75C18.1875 0.75 23.2031 5.8125 23.2031 12C23.2031 18.2344 18.1875 23.25 12 23.25C5.76562 23.25 0.75 18.2344 0.75 12C0.75 5.8125 5.76562 0.75 12 0.75ZM19.7812 7.5C18.9375 6.09375 17.7188 4.875 16.2188 4.07812C16.7344 5.0625 17.1562 6.23438 17.4844 7.5H19.7812ZM15.75 12C15.75 11.2031 15.6562 10.5 15.5625 9.75H8.39062C8.29688 10.5 8.25 11.25 8.25 12C8.25 12.7969 8.29688 13.5469 8.39062 14.25H15.5625C15.6562 13.5469 15.75 12.7969 15.75 12ZM12 21C12.9844 21 14.3438 19.3125 15.1406 16.5H8.8125C9.60938 19.3125 10.9688 21 12 21ZM8.8125 7.5H15.1406C14.3438 4.73438 12.9844 3 12 3C10.9688 3 9.60938 4.73438 8.8125 7.5ZM7.73438 4.07812C6.23438 4.875 5.01562 6.09375 4.17188 7.5H6.46875C6.79688 6.23438 7.21875 5.0625 7.73438 4.07812ZM3.28125 9.75C3.09375 10.5 3 11.25 3 12C3 12.7969 3.09375 13.5469 3.28125 14.25H6.09375C6 13.5469 6 12.7969 6 12C6 11.25 6 10.5 6.09375 9.75H3.28125ZM4.17188 16.5C5.01562 17.9531 6.23438 19.1719 7.73438 19.9688C7.21875 18.9844 6.79688 17.8125 6.46875 16.5H4.17188ZM16.2188 19.9688C17.7188 19.1719 18.9375 17.9531 19.7812 16.5H17.4844C17.1562 17.8125 16.7344 18.9844 16.2188 19.9688ZM20.6719 14.25C20.8594 13.5469 21 12.7969 21 12C21 11.25 20.8594 10.5 20.6719 9.75H17.8594C17.9531 10.5 18 11.25 18 12C18 12.7969 17.9531 13.5469 17.8594 14.25H20.6719Z" fill="#222222"/>
</svg>
