<svg width="24" height="24" viewBox="0 0 24 24" fill="none" xmlns="http://www.w3.org/2000/svg">
<path d="M12 0.75C18.1875 0.75 23.2031 5.8125 23.2031 12C23.2031 18.2344 18.1875 23.25 12 23.25C5.76562 23.25 0.75 18.2344 0.75 12C0.75 5.8125 5.76562 0.75 12 0.75ZM21.75 12C21.75 10.9688 21.5625 9.98438 21.2344 9H17.7656C17.9062 9.98438 18 10.9688 18 12C18 13.0781 17.9062 14.0625 17.7656 15H21.2344C21.5625 14.0625 21.75 13.0781 21.75 12ZM12 21.75C13.5 21.75 15.0938 19.7344 15.8906 16.5H8.01562C8.85938 19.7344 10.4531 21.75 12 21.75ZM7.6875 15H16.2656C16.4062 14.1094 16.5 13.0781 16.5 12C16.5 10.9688 16.4062 9.9375 16.2656 9H7.6875C7.54688 9.9375 7.5 10.9688 7.5 12C7.5 13.0781 7.54688 14.1094 7.6875 15ZM2.25 12C2.25 13.0781 2.39062 14.0625 2.71875 15H6.1875C6.04688 14.0625 5.95312 13.0781 5.95312 12C5.95312 10.9688 6.04688 9.98438 6.1875 9H2.71875C2.39062 9.98438 2.25 10.9688 2.25 12ZM12 2.25C10.4531 2.25 8.85938 4.3125 8.01562 7.5H15.9375C15.0938 4.3125 13.5 2.25 12 2.25ZM20.625 7.5C19.5469 5.4375 17.7188 3.79688 15.5156 2.95312C16.3594 4.125 17.0625 5.67188 17.4844 7.5H20.625ZM8.4375 2.95312C6.23438 3.79688 4.40625 5.4375 3.32812 7.5H6.46875C6.89062 5.67188 7.59375 4.125 8.4375 2.95312ZM3.32812 16.5C4.40625 18.6094 6.23438 20.25 8.4375 21.0938C7.59375 19.9219 6.89062 18.375 6.46875 16.5H3.32812ZM15.5156 21.0938C17.7188 20.25 19.5469 18.6094 20.625 16.5H17.4844C17.0625 18.375 16.3594 19.9219 15.5156 21.0938Z" fill="#222222"/>
</svg>
