<svg width="34" height="34" viewBox="0 0 34 34" fill="none" xmlns="http://www.w3.org/2000/svg">
<circle cx="17" cy="17" r="16.75" transform="matrix(-1 0 0 1 34 0)" fill="white" fill-opacity="0.8" stroke="black" stroke-width="0.5"/>
<path d="M22.6328 12.4727C24.3555 13.9492 24.4375 16.5742 22.9062 18.1602L17.6016 23.6289C17.4375 23.793 17.2188 23.875 16.9727 23.875C16.7539 23.875 16.5352 23.793 16.3711 23.6289L11.0664 18.1602C9.53516 16.5742 9.61719 13.9492 11.3398 12.4727C11.9961 11.8984 12.8164 11.625 13.6367 11.625C14.6484 11.625 15.6875 12.0625 16.4531 12.8281L17 13.4023L17.5195 12.8281C18.2852 12.0625 19.3242 11.625 20.3359 11.625C21.1562 11.625 21.9766 11.8984 22.6328 12.4727ZM21.9492 17.2578C22.8516 16.3281 23.043 14.5508 21.7852 13.4844C20.6914 12.5273 19.1875 13.0195 18.4766 13.7578L17 15.2891L15.4961 13.7578C14.7852 12.9922 13.2812 12.5273 12.1875 13.4844C10.9297 14.5508 11.1484 16.3281 12.0234 17.2578L17 22.3711L21.9492 17.2578Z" fill="#222222"/>
</svg>
