<svg xmlns="http://www.w3.org/2000/svg" width="14" height="15" viewBox="0 0 14 15" fill="none">
<path d="M10.5178 8.67771L10.5178 8.67768L10.5138 8.68202C10.2297 8.99194 10.111 9.42266 10.1714 9.83298L10.1714 9.83298L10.1724 9.83939L10.7751 13.5935C10.7751 13.5935 10.7751 13.5936 10.7751 13.5936C10.7998 13.7481 10.7367 13.8819 10.6569 13.944L10.6568 13.9438L10.6461 13.9527C10.5758 14.0105 10.4979 14.0134 10.4287 13.9717L10.4288 13.9717L10.4235 13.9686L7.4222 12.2069C7.24505 12.1012 7.0469 12.0439 6.84438 12.0373L6.83635 12.0371H6.82831H6.64456H6.60295L6.5619 12.044C6.4377 12.0648 6.31583 12.1091 6.204 12.1771L3.20871 13.9433C3.16244 13.9687 3.1164 13.9761 3.07345 13.9702C2.97533 13.944 2.83478 13.8 2.86723 13.5659L3.46998 9.81582L3.47003 9.81583L3.47107 9.80872C3.53122 9.3968 3.4128 8.96643 3.13121 8.6544L3.13122 8.65439L3.12859 8.65152L0.680317 5.98082C0.601804 5.89509 0.562911 5.74626 0.606921 5.60378L0.608016 5.60019C0.651644 5.45508 0.747483 5.38993 0.817004 5.37663L4.17257 4.82877C4.61911 4.77194 4.97898 4.46926 5.15549 4.07196L5.15551 4.07197L5.15733 4.06778L6.63941 0.648002C6.65077 0.624159 6.6629 0.604934 6.67446 0.589993L6.70945 0.559369L6.74248 0.530456L6.75464 0.515315L6.76383 0.511518L6.77343 0.507072L6.78869 0.5H6.92522C6.98463 0.513766 7.05722 0.561206 7.10478 0.663387L8.60665 4.06831C8.60685 4.06876 8.60704 4.0692 8.60723 4.06965C8.77572 4.45607 9.11668 4.75291 9.54301 4.82642L9.54301 4.82644L9.5474 4.82715L12.9173 5.37736L12.9185 5.37755C12.99 5.38905 13.0894 5.45379 13.1359 5.59963C13.1762 5.74404 13.1342 5.8913 13.0552 5.97472L13.0537 5.97631L10.5178 8.67771Z" stroke="#222222" stroke-opacity="0.3"/>
</svg>