<svg width="14" height="10" viewBox="0 0 14 10" fill="none" xmlns="http://www.w3.org/2000/svg">
<path d="M3 4C4.65625 4 6 5.34375 6 7C6 8.6875 4.65625 10 3 10C1.3125 10 0 8.6875 0 7V4C0 1.8125 1.78125 0 4 0C4.53125 0 5 0.46875 5 1C5 1.5625 4.53125 2 4 2C2.875 2 2 2.90625 2 4V4.1875C2.3125 4.09375 2.625 4 3 4ZM11 4C12.6562 4 14 5.34375 14 7C14 8.6875 12.6562 10 11 10C9.3125 10 8 8.6875 8 7V4C8 1.8125 9.78125 0 12 0C12.5312 0 13 0.46875 13 1C13 1.5625 12.5312 2 12 2C10.875 2 10 2.90625 10 4V4.1875C10.3125 4.09375 10.625 4 11 4Z" fill="black"/>
</svg>
