<svg width="16" height="13" viewBox="0 0 16 13" fill="none" xmlns="http://www.w3.org/2000/svg">
<path d="M13.6328 1.47266C15.3555 2.94922 15.4375 5.57422 13.9062 7.16016L8.60156 12.6289C8.4375 12.793 8.21875 12.875 7.97266 12.875C7.75391 12.875 7.53516 12.793 7.37109 12.6289L2.06641 7.16016C0.535156 5.57422 0.617188 2.94922 2.33984 1.47266C2.99609 0.898437 3.81641 0.625 4.63672 0.625C5.64844 0.625 6.6875 1.0625 7.45312 1.82812L8 2.40234L8.51953 1.82812C9.28516 1.0625 10.3242 0.625 11.3359 0.625C12.1562 0.625 12.9766 0.898437 13.6328 1.47266ZM12.9492 6.25781C13.8516 5.32812 14.043 3.55078 12.7852 2.48437C11.6914 1.52734 10.1875 2.01953 9.47656 2.75781L8 4.28906L6.49609 2.75781C5.78516 1.99219 4.28125 1.52734 3.1875 2.48437C1.92969 3.55078 2.14844 5.32812 3.02344 6.25781L8 11.3711L12.9492 6.25781Z" fill="#222222"/>
</svg>
