<svg width="231" height="242" viewBox="0 0 231 242" fill="none" xmlns="http://www.w3.org/2000/svg">
<path d="M40.5768 231.549C40.4281 231.884 40.0935 232.07 39.7589 232.07C39.6288 232.07 39.4987 232.051 39.3872 231.995C37.7329 231.233 36.1158 230.434 34.5358 229.598C34.0897 229.356 33.9224 228.817 34.1641 228.371C34.4057 227.925 34.9447 227.757 35.3909 227.999C36.915 228.817 38.5136 229.616 40.1307 230.36C40.5768 230.564 40.7813 231.103 40.5768 231.549ZM37.4169 91.0267C37.7329 90.6364 37.6585 90.0602 37.2682 89.7628C36.8779 89.4468 36.3016 89.5211 36.0042 89.9115C34.8704 91.3241 33.7737 92.7368 32.7142 94.1495C32.4168 94.5398 32.4912 95.116 32.8815 95.4134C33.0488 95.5435 33.2347 95.5993 33.4206 95.5993C33.6994 95.5993 33.9596 95.4692 34.1455 95.2461C35.205 93.8521 36.3016 92.4394 37.4169 91.0453V91.0267ZM30.8183 225.341C29.3127 224.393 27.8443 223.389 26.4502 222.367C26.0413 222.07 25.4836 222.162 25.1862 222.553C24.8888 222.962 24.9818 223.519 25.3721 223.817C26.8034 224.876 28.309 225.899 29.8517 226.865C30.0004 226.958 30.1677 226.995 30.335 226.995C30.6324 226.995 30.9298 226.847 31.0971 226.568C31.3573 226.14 31.2458 225.583 30.8183 225.322V225.341ZM24.6286 107.031C24.2197 106.752 23.6435 106.882 23.3832 107.291C22.3795 108.815 21.413 110.321 20.4836 111.826C20.2233 112.254 20.3535 112.811 20.781 113.072C20.9297 113.165 21.097 113.202 21.2642 113.202C21.5617 113.202 21.8591 113.053 22.0263 112.774C22.9557 111.287 23.9037 109.782 24.8888 108.276C25.1677 107.867 25.0561 107.291 24.6286 107.031ZM18.5133 215.452C18.1601 215.099 17.5839 215.081 17.2307 215.452C16.8776 215.805 16.859 216.382 17.2307 216.735C18.4761 218.017 19.7958 219.263 21.1713 220.452C21.3386 220.601 21.5617 220.675 21.7661 220.675C22.0263 220.675 22.268 220.564 22.4539 220.359C22.7884 219.988 22.7327 219.411 22.3609 219.077C21.0226 217.924 19.7401 216.698 18.5319 215.452H18.5133ZM49.9821 73.5915C48.7554 74.9299 47.5657 76.2496 46.3761 77.5693C46.0416 77.941 46.0787 78.5173 46.4505 78.8518C46.6178 79.0005 46.8408 79.0749 47.0453 79.0749C47.2869 79.0749 47.5472 78.9634 47.7144 78.7775C48.8855 77.4578 50.0751 76.138 51.2833 74.8183C51.6178 74.4466 51.5993 73.8704 51.2275 73.5358C50.8558 73.2012 50.2795 73.2198 49.945 73.5915H49.9821ZM60.2611 236.902C58.5139 236.531 56.7852 236.103 55.0937 235.657C54.6105 235.508 54.1086 235.824 53.9785 236.289C53.8484 236.772 54.1458 237.274 54.629 237.386C56.3391 237.85 58.1049 238.259 59.8708 238.65C59.9265 238.65 60.0009 238.668 60.0566 238.668C60.4656 238.668 60.8559 238.371 60.9488 237.962C61.0604 237.479 60.7444 236.995 60.2611 236.884V236.902ZM44.127 81.5285C43.7553 81.2125 43.1791 81.2496 42.8445 81.6214C41.6735 82.9969 40.521 84.3724 39.3872 85.7293C39.0712 86.1196 39.127 86.6772 39.4987 87.0118C39.666 87.1419 39.8705 87.2163 40.0749 87.2163C40.3352 87.2163 40.5954 87.1047 40.7813 86.8817C41.8965 85.5248 43.049 84.1679 44.22 82.7924C44.536 82.4207 44.4988 81.8444 44.127 81.5099V81.5285ZM66.2277 58.2382C65.8746 57.885 65.2983 57.8664 64.9452 58.2196C63.644 59.4835 62.3801 60.7289 61.1161 61.9743C60.763 62.3274 60.763 62.9037 61.1161 63.2568C61.2834 63.4427 61.5251 63.517 61.7481 63.517C61.9712 63.517 62.2128 63.4241 62.3801 63.2568C63.6255 62.0114 64.8894 60.7661 66.1905 59.5207C66.5437 59.1675 66.5623 58.5913 66.2091 58.2382H66.2277ZM50.0193 234.17C48.3092 233.612 46.6364 233.018 45.0192 232.404C44.5545 232.218 44.0341 232.46 43.8482 232.925C43.6623 233.389 43.904 233.91 44.3687 234.096C46.0044 234.728 47.7144 235.341 49.4617 235.899C49.5546 235.936 49.6476 235.936 49.7405 235.936C50.1308 235.936 50.484 235.694 50.5955 235.304C50.7442 234.821 50.484 234.319 50.0193 234.17ZM54.9636 70.9149C56.1718 69.6324 57.3986 68.3498 58.6626 67.0673C59.0157 66.7141 58.9971 66.1379 58.6626 65.7847C58.3094 65.4316 57.7332 65.4502 57.38 65.7847C56.1161 67.0859 54.8707 68.3684 53.6625 69.651C53.3279 70.0227 53.3279 70.5803 53.6997 70.9335C53.867 71.1008 54.09 71.1751 54.3131 71.1751C54.5547 71.1751 54.7963 71.0822 54.9636 70.8963V70.9149ZM0.910794 173.258C1.41266 173.258 1.803 172.868 1.82159 172.366C1.82159 170.619 1.91453 168.853 2.04464 167.087C2.08181 166.585 1.71006 166.158 1.2082 166.121C0.724918 166.102 0.278814 166.455 0.241639 166.957C0.0929381 168.76 0.0185876 170.582 0 172.366C0 172.868 0.39034 173.277 0.892206 173.277L0.910794 173.258ZM2.52792 182.887C2.26769 181.177 2.08181 179.411 1.97029 177.645C1.93311 177.143 1.5056 176.771 1.00373 176.809C0.501866 176.846 0.130113 177.273 0.167289 177.775C0.278814 179.578 0.483278 181.4 0.743505 183.166C0.817856 183.612 1.18961 183.946 1.63571 183.946C1.67289 183.946 1.72865 183.946 1.76582 183.946C2.26769 183.872 2.60227 183.407 2.52792 182.924V182.887ZM1.61712 162.589C1.61712 162.589 1.71006 162.589 1.74724 162.589C2.19334 162.589 2.58368 162.255 2.63944 161.808C2.88108 160.098 3.17848 158.333 3.53165 156.585C3.62459 156.102 3.3086 155.619 2.82532 155.526C2.34204 155.433 1.85876 155.749 1.76582 156.232C1.41266 158.017 1.09667 159.801 0.855031 161.548C0.78068 162.05 1.13385 162.496 1.61712 162.571V162.589ZM3.62459 152.087C3.62459 152.087 3.77329 152.124 3.84764 152.124C4.25657 152.124 4.60973 151.845 4.72126 151.455C5.14877 149.782 5.65064 148.054 6.18968 146.362C6.33838 145.879 6.07816 145.377 5.59488 145.228C5.1116 145.08 4.60973 145.34 4.46103 145.823C3.92199 147.552 3.42012 149.299 2.97402 151.009C2.84391 151.492 3.14131 151.994 3.62459 152.106V152.087ZM27.1379 104.243C27.4168 104.243 27.7142 104.112 27.8814 103.852C28.8852 102.421 29.9075 100.971 30.967 99.5027C31.2644 99.0938 31.1715 98.5361 30.7625 98.2387C30.3536 97.9413 29.796 98.0343 29.4986 98.4432C28.4205 99.9116 27.3982 101.361 26.3944 102.83C26.1156 103.239 26.2086 103.796 26.6175 104.094C26.7662 104.205 26.9521 104.261 27.1379 104.261V104.243ZM11.8775 207.292C11.5987 206.883 11.0411 206.772 10.6135 207.051C10.2046 207.33 10.0931 207.887 10.3719 208.315C11.3756 209.802 12.4723 211.27 13.6061 212.664C13.792 212.887 14.0522 212.999 14.3125 212.999C14.5169 212.999 14.7214 212.924 14.8887 212.794C15.279 212.478 15.3348 211.902 15.0188 211.53C13.9035 210.173 12.8441 208.742 11.8775 207.311V207.292ZM10.7437 131.938C10.8738 131.994 10.9853 132.012 11.1154 132.012C11.4686 132.012 11.7846 131.808 11.9333 131.492C12.6582 129.912 13.4203 128.314 14.2195 126.696C14.4426 126.25 14.2567 125.711 13.8106 125.488C13.3645 125.265 12.8255 125.451 12.6024 125.897C11.7846 127.533 11.0039 129.15 10.279 130.748C10.0745 131.195 10.279 131.734 10.7251 131.938H10.7437ZM3.53165 188.073C3.42012 187.589 2.93685 187.273 2.45357 187.404C1.97029 187.515 1.67289 187.998 1.78441 188.482C2.19334 190.247 2.69521 192.013 3.25284 193.705C3.38295 194.077 3.73611 194.318 4.10787 194.318C4.2008 194.318 4.29374 194.318 4.38668 194.281C4.85137 194.132 5.1116 193.612 4.9629 193.147C4.42386 191.493 3.94058 189.783 3.53165 188.073ZM9.33099 135.191C8.8663 135.005 8.34585 135.228 8.15997 135.674C7.47223 137.366 6.82166 139.039 6.20827 140.693C6.04098 141.158 6.28262 141.678 6.74731 141.845C6.84025 141.882 6.95177 141.901 7.0633 141.901C7.43505 141.901 7.78822 141.678 7.91833 141.306C8.51313 139.671 9.14511 138.016 9.83286 136.343C10.0187 135.879 9.79568 135.358 9.34958 135.172L9.33099 135.191ZM6.82166 198.073C6.6172 197.608 6.09674 197.404 5.63205 197.608C5.16736 197.813 4.9629 198.333 5.16736 198.798C5.89228 200.452 6.69155 202.088 7.56517 203.686C7.73245 203.984 8.02986 204.151 8.36443 204.151C8.51313 204.151 8.66184 204.114 8.79195 204.04C9.23805 203.798 9.38675 203.259 9.14511 202.813C8.30867 201.27 7.52799 199.69 6.82166 198.091V198.073ZM18.978 116.101C18.5505 115.841 17.9928 115.99 17.7326 116.436C16.8218 118.016 15.9482 119.577 15.0932 121.12C14.8515 121.566 15.0188 122.105 15.4649 122.347C15.595 122.421 15.7437 122.458 15.8924 122.458C16.2084 122.458 16.5244 122.291 16.6917 121.994C17.5281 120.451 18.4018 118.908 19.294 117.347C19.5542 116.919 19.4055 116.362 18.9594 116.12L18.978 116.101ZM193.181 209.356C191.62 210.229 190.059 211.066 188.497 211.902C188.051 212.144 187.884 212.683 188.125 213.129C188.293 213.426 188.609 213.612 188.925 213.612C189.073 213.612 189.222 213.575 189.352 213.501C190.914 212.664 192.493 211.809 194.073 210.936C194.501 210.694 194.668 210.136 194.427 209.709C194.185 209.281 193.627 209.114 193.2 209.356H193.181ZM174.148 219.003C172.512 219.746 170.895 220.471 169.278 221.177C168.813 221.382 168.608 221.902 168.813 222.367C168.962 222.702 169.296 222.906 169.649 222.906C169.761 222.906 169.891 222.887 170.002 222.832C171.638 222.125 173.274 221.382 174.91 220.638C175.356 220.434 175.56 219.895 175.356 219.449C175.151 219.003 174.612 218.798 174.166 219.003H174.148ZM183.757 214.356C182.159 215.173 180.56 215.954 178.98 216.716C178.534 216.939 178.348 217.478 178.553 217.924C178.701 218.24 179.036 218.426 179.371 218.426C179.501 218.426 179.631 218.389 179.761 218.333C181.359 217.553 182.958 216.772 184.575 215.954C185.021 215.731 185.189 215.192 184.966 214.746C184.742 214.3 184.203 214.114 183.757 214.356ZM144.314 230.508C142.604 231.047 140.894 231.549 139.203 232.032C138.719 232.163 138.441 232.664 138.589 233.148C138.701 233.538 139.073 233.798 139.463 233.798C139.537 233.798 139.63 233.798 139.705 233.761C141.415 233.278 143.125 232.757 144.853 232.218C145.337 232.07 145.597 231.568 145.448 231.085C145.299 230.601 144.798 230.341 144.314 230.49V230.508ZM164.37 223.259C162.716 223.947 161.062 224.597 159.408 225.229C158.943 225.415 158.701 225.936 158.887 226.4C159.017 226.754 159.37 226.977 159.724 226.977C159.835 226.977 159.947 226.958 160.058 226.921C161.712 226.289 163.385 225.62 165.04 224.932C165.504 224.746 165.727 224.207 165.523 223.761C165.337 223.296 164.798 223.073 164.352 223.278L164.37 223.259ZM154.426 227.107C152.735 227.72 151.062 228.296 149.389 228.873C148.924 229.04 148.664 229.542 148.813 230.025C148.943 230.397 149.296 230.638 149.668 230.638C149.761 230.638 149.853 230.638 149.965 230.583C151.656 230.006 153.348 229.43 155.039 228.817C155.504 228.65 155.746 228.129 155.578 227.664C155.411 227.2 154.891 226.958 154.426 227.125V227.107ZM202.419 204.002C200.877 204.932 199.352 205.824 197.828 206.716C197.401 206.958 197.252 207.515 197.494 207.943C197.661 208.24 197.958 208.389 198.274 208.389C198.423 208.389 198.59 208.352 198.72 208.259C200.263 207.367 201.806 206.456 203.349 205.527C203.776 205.266 203.906 204.709 203.665 204.281C203.404 203.854 202.847 203.724 202.419 203.965V204.002ZM220.301 192.348C218.832 193.37 217.364 194.374 215.895 195.378C215.486 195.656 215.375 196.214 215.654 196.642C215.821 196.902 216.118 197.032 216.397 197.032C216.564 197.032 216.75 196.976 216.899 196.883C218.367 195.88 219.854 194.876 221.323 193.835C221.732 193.556 221.825 192.98 221.546 192.571C221.267 192.162 220.691 192.069 220.282 192.348H220.301ZM230.208 186.27C229.91 185.879 229.334 185.786 228.944 186.084C227.513 187.162 226.081 188.203 224.65 189.244C224.241 189.541 224.148 190.099 224.446 190.508C224.632 190.749 224.892 190.879 225.171 190.879C225.356 190.879 225.542 190.824 225.71 190.712C227.141 189.671 228.591 188.612 230.022 187.534C230.412 187.236 230.505 186.66 230.208 186.27ZM211.453 198.333C209.947 199.318 208.46 200.266 206.955 201.214C206.527 201.474 206.397 202.032 206.676 202.46C206.843 202.738 207.141 202.887 207.438 202.887C207.605 202.887 207.773 202.85 207.921 202.757C209.427 201.809 210.932 200.842 212.438 199.857C212.866 199.578 212.977 199.021 212.698 198.612C212.419 198.203 211.862 198.073 211.453 198.352V198.333ZM81.358 239.56C79.5736 239.486 77.8078 239.375 76.042 239.226C75.5215 239.152 75.1126 239.56 75.0754 240.044C75.0383 240.546 75.41 240.973 75.8933 241.01C77.6591 241.159 79.4621 241.271 81.2651 241.345H81.3023C81.7856 241.345 82.1759 240.973 82.2131 240.49C82.2317 239.988 81.8413 239.56 81.358 239.542V239.56ZM90.0199 38.052C90.4102 37.736 90.4474 37.1598 90.1314 36.7694C89.8154 36.3977 89.2392 36.3419 88.8489 36.6579C87.4734 37.8289 86.1165 38.9814 84.7782 40.1338C84.4064 40.4684 84.3507 41.026 84.6852 41.4164C84.8711 41.6208 85.1127 41.7323 85.373 41.7323C85.5774 41.7323 85.8005 41.658 85.9678 41.5093C87.3061 40.3569 88.663 39.2044 90.0385 38.0334L90.0199 38.052ZM80.7261 43.6655C79.3692 44.8551 78.0309 46.0447 76.7297 47.2343C76.358 47.5689 76.3208 48.1451 76.6554 48.5168C76.8413 48.7213 77.0829 48.8142 77.3245 48.8142C77.5476 48.8142 77.7521 48.7399 77.9379 48.5912C79.2391 47.4016 80.5774 46.2306 81.9343 45.0409C82.306 44.7064 82.3432 44.1487 82.0086 43.7584C81.674 43.3866 81.0978 43.3495 80.7261 43.684V43.6655ZM134.054 233.427C132.325 233.873 130.597 234.3 128.887 234.709C128.403 234.821 128.106 235.304 128.217 235.787C128.31 236.196 128.682 236.494 129.091 236.494C129.165 236.494 129.221 236.494 129.296 236.475C131.024 236.066 132.771 235.638 134.519 235.192C135.002 235.062 135.299 234.579 135.169 234.096C135.039 233.612 134.537 233.315 134.073 233.445L134.054 233.427ZM91.9902 239.635C90.6147 239.672 89.2578 239.691 87.9195 239.691H86.6741C86.2094 239.616 85.7633 240.081 85.7633 240.583C85.7633 241.085 86.1537 241.494 86.6555 241.494H87.9195C89.2764 241.494 90.6519 241.494 92.0459 241.438C92.5478 241.438 92.9381 241.01 92.9196 240.508C92.9196 240.007 92.5106 239.635 91.9902 239.635ZM70.7631 238.668C68.9787 238.445 67.2315 238.185 65.5028 237.906C65.0195 237.832 64.5362 238.148 64.4619 238.65C64.369 239.152 64.7035 239.616 65.2054 239.691C66.9526 239.988 68.7371 240.248 70.54 240.471C70.5772 240.471 70.6144 240.471 70.6516 240.471C71.0977 240.471 71.488 240.137 71.5438 239.672C71.5995 239.17 71.2464 238.724 70.7631 238.668ZM72.7706 50.8403C71.4508 52.0671 70.1311 53.2938 68.8486 54.502C68.4954 54.8552 68.4768 55.4128 68.8114 55.7846C68.9973 55.9705 69.2203 56.0634 69.462 56.0634C69.685 56.0634 69.9081 55.9891 70.0754 55.8218C71.3579 54.6136 72.659 53.3868 73.9788 52.1786C74.3505 51.844 74.3691 51.2678 74.0345 50.896C73.7 50.5243 73.1237 50.5057 72.752 50.8403H72.7706ZM113.199 237.72C111.433 237.981 109.667 238.222 107.92 238.445C107.418 238.501 107.065 238.947 107.139 239.449C107.195 239.914 107.585 240.248 108.031 240.248C108.068 240.248 108.106 240.248 108.143 240.248C109.909 240.044 111.674 239.802 113.477 239.523C113.979 239.449 114.314 238.984 114.24 238.501C114.165 237.999 113.719 237.665 113.217 237.739L113.199 237.72ZM123.682 235.843C121.935 236.196 120.188 236.549 118.44 236.847C117.957 236.94 117.623 237.404 117.715 237.888C117.79 238.334 118.18 238.631 118.608 238.631C118.663 238.631 118.719 238.631 118.775 238.631C120.522 238.315 122.288 237.981 124.054 237.609C124.537 237.516 124.853 237.033 124.76 236.531C124.667 236.047 124.184 235.731 123.701 235.824L123.682 235.843ZM98.3843 29.9478C98.0683 29.5575 97.4921 29.5017 97.1204 29.8177C95.7263 30.9515 94.3322 32.0854 92.9753 33.2192C92.585 33.5352 92.5292 34.1114 92.8638 34.5018C93.0497 34.7248 93.3099 34.8363 93.5701 34.8363C93.7746 34.8363 93.979 34.762 94.1463 34.6319C95.5032 33.498 96.8787 32.3828 98.2728 31.2489C98.6631 30.9329 98.7189 30.3567 98.4029 29.985L98.3843 29.9478ZM102.604 239.003C100.819 239.17 99.0535 239.3 97.2877 239.393C96.7858 239.43 96.414 239.858 96.4326 240.341C96.4698 240.824 96.8601 241.196 97.3248 241.196H97.3806C99.1464 241.085 100.949 240.955 102.752 240.787C103.254 240.75 103.607 240.304 103.57 239.802C103.533 239.3 103.087 238.966 102.585 238.984L102.604 239.003Z" fill="#FF5722"/>
<path d="M129.203 8.19886C132.92 5.22484 136.954 0.931101 136.303 0.131833C135.653 -0.667435 130.578 2.30658 126.861 5.29919C126.526 5.57801 126.192 5.83823 125.876 6.09846C125.225 5.98693 123.868 5.76388 122.14 5.48507C122.158 5.48507 122.195 5.48507 122.214 5.48507L123.218 4.6858C123.348 4.59286 123.348 4.3884 123.218 4.25829L122.437 3.29173C122.325 3.14303 122.14 3.10585 122.009 3.21738L121.006 4.01664C121.006 4.01664 120.931 4.12817 120.913 4.20252L119.742 5.1319C118.273 4.89026 116.675 4.63004 115.095 4.36981L116.08 3.58913C116.21 3.49619 116.21 3.29173 116.08 3.16162L115.299 2.19506C115.188 2.04636 115.002 2.00918 114.872 2.12071L113.868 2.91998C113.868 2.91998 113.794 3.0315 113.775 3.10585L112.641 3.99806C108.626 3.34749 105.262 2.82704 105.15 2.86421C104.872 2.95715 103.44 4.18393 103.44 4.18393C103.087 4.46275 102.846 4.72298 102.864 4.76015C102.901 4.79733 103.31 4.51851 103.645 4.25829L111.024 6.95349C110.764 7.19513 110.615 7.41818 110.671 7.49253C110.745 7.58547 111.08 7.41818 111.414 7.13937L111.452 7.10219L112.901 7.64123C112.66 7.86429 112.511 8.08734 112.567 8.16169C112.641 8.25463 112.976 8.08734 113.31 7.80852L114.63 8.27321L115.429 8.84943C115.132 9.10966 114.928 9.36988 114.983 9.44423C115.058 9.53717 115.392 9.36988 115.727 9.09107H115.745L117.325 10.2063C117.028 10.4666 116.823 10.7268 116.898 10.8011C116.972 10.8941 117.307 10.7268 117.641 10.448L119.091 11.4889C116.619 13.5149 115.652 14.3328 113.812 15.8198C111.954 17.3068 110.262 18.8682 108.905 20.2622C106.712 19.9277 102.381 19.2027 102.381 19.2027L101.266 19.9462L105.968 23.5894C105.708 23.9426 105.504 24.2214 105.392 24.4445C104.667 25.1136 104.24 25.5597 104.295 25.6341C104.351 25.7084 104.872 25.411 105.652 24.8534C105.894 24.779 106.229 24.6117 106.656 24.4073L109.203 29.8534L110.188 28.9427C110.188 28.9427 110.448 24.2586 110.597 22.121C112.195 21.1173 114.017 19.9277 115.913 18.6079C118.218 16.7678 119.258 15.9871 121.396 14.3142L122.084 15.9499C121.731 16.2473 121.508 16.5261 121.582 16.6191C121.638 16.6934 121.935 16.5633 122.27 16.3217L123.032 18.1247H123.013C122.66 18.4221 122.437 18.7195 122.511 18.7938C122.567 18.8682 122.883 18.738 123.199 18.4964L123.589 19.3886L123.775 20.7827C123.422 21.0615 123.199 21.3589 123.273 21.4518C123.329 21.5262 123.571 21.4333 123.85 21.2288L124.054 22.7716H124.017C123.664 23.069 123.441 23.3664 123.515 23.4593C123.571 23.5337 123.831 23.4221 124.11 23.2177L125.114 31.0059C124.798 31.2847 124.426 31.6193 124.444 31.6565C124.482 31.6936 124.779 31.5078 125.132 31.2289C125.132 31.2289 126.656 30.0951 126.786 29.8534C126.842 29.7605 127.065 26.359 127.325 22.3069L128.459 21.4147C128.459 21.4147 128.608 21.4147 128.664 21.3775L129.668 20.5782C129.798 20.4853 129.798 20.2808 129.668 20.1507L128.887 19.1842C128.775 19.0355 128.589 18.9983 128.459 19.1098L127.474 19.8905C127.567 18.2919 127.66 16.6934 127.753 15.1878L128.924 14.2584C128.924 14.2584 129.073 14.2584 129.128 14.2213L130.132 13.422C130.262 13.3291 130.262 13.1246 130.132 12.9945L129.352 12.0279C129.24 11.8792 129.054 11.842 128.924 11.9536L127.92 12.7528C127.92 12.7528 127.92 12.79 127.883 12.8272C127.995 11.0985 128.069 9.74164 128.106 9.07248C128.422 8.81225 128.757 8.55203 129.11 8.27321L129.203 8.19886Z" fill="#FF5722"/>
</svg>
