<svg width="13" height="15" viewBox="0 0 13 15" fill="none" xmlns="http://www.w3.org/2000/svg">
<path d="M11.5938 9.5C11.9492 9.5 12.25 9.80078 12.25 10.1562V12.125C12.25 13.6016 11.0742 14.75 9.625 14.75H2.625C1.14844 14.75 0 13.6016 0 12.125V10.1562C0 9.80078 0.273438 9.5 0.65625 9.5C1.01172 9.5 1.3125 9.80078 1.3125 10.1562V12.125C1.3125 12.8633 1.88672 13.4375 2.625 13.4375H9.625C10.3359 13.4375 10.9375 12.8633 10.9375 12.125V10.1562C10.9375 9.80078 11.2109 9.5 11.5938 9.5ZM5.66016 0.941406L1.94141 4.41406C1.66797 4.6875 1.66797 5.09766 1.91406 5.37109C2.16016 5.64453 2.57031 5.64453 2.84375 5.39844L5.46875 2.9375V9.71875C5.46875 10.1016 5.74219 10.375 6.125 10.375C6.48047 10.375 6.78125 10.1016 6.78125 9.74609V2.9375L9.37891 5.39844C9.65234 5.64453 10.0625 5.64453 10.3086 5.37109C10.418 5.23438 10.5 5.07031 10.5 4.90625C10.5 4.74219 10.418 4.57812 10.2812 4.44141L6.5625 0.96875C6.31641 0.695312 5.90625 0.695312 5.66016 0.941406Z" fill="#222222"/>
</svg>
