<svg width="15" height="15" viewBox="0 0 15 15" fill="none" xmlns="http://www.w3.org/2000/svg">
<path d="M13.2227 0.75C14.207 0.75 14.9727 1.54297 14.9727 2.5V10.3477C14.9727 11.2773 14.1797 12.0703 13.2227 12.0703H9.28516L5.86719 14.6133C5.64844 14.7773 5.34766 14.6406 5.34766 14.3672V12.0703H2.72266C1.73828 12.0703 0.972656 11.3047 0.972656 10.3477V2.5C0.972656 1.54297 1.73828 0.75 2.72266 0.75H13.2227ZM14.125 10.375V2.5C14.125 2.03516 13.7148 1.625 13.25 1.625H2.75C2.25781 1.625 1.875 2.03516 1.875 2.5V10.375C1.875 10.8672 2.25781 11.25 2.75 11.25H5.8125C6.03125 11.25 6.25 11.4688 6.25 11.6875V13.3281L8.76562 11.4414C8.92969 11.332 9.09375 11.25 9.28516 11.25H13.25C13.7148 11.25 14.125 10.8672 14.125 10.375Z" fill="#F67E18"/>
</svg>
