<svg width="10" height="15" viewBox="0 0 10 15" fill="none" xmlns="http://www.w3.org/2000/svg">
<path d="M7.875 0.75C8.83203 0.75 9.625 1.54297 9.625 2.5V13C9.625 13.9844 8.83203 14.75 7.875 14.75H2.625C1.64062 14.75 0.875 13.9844 0.875 13V2.5C0.875 1.54297 1.64062 0.75 2.625 0.75H7.875ZM8.75 13V2.5C8.75 2.03516 8.33984 1.625 7.875 1.625H2.625C2.13281 1.625 1.75 2.03516 1.75 2.5V13C1.75 13.4922 2.13281 13.875 2.625 13.875H7.875C8.33984 13.875 8.75 13.4922 8.75 13ZM6.125 11.6875C6.34375 11.6875 6.5625 11.9062 6.5625 12.125C6.5625 12.3711 6.34375 12.5625 6.125 12.5625H4.375C4.12891 12.5625 3.9375 12.3711 3.9375 12.125C3.9375 11.9062 4.12891 11.6875 4.375 11.6875H6.125Z" fill="#F67E18"/>
</svg>
