<svg width="14" height="15" viewBox="0 0 14 15" fill="none" xmlns="http://www.w3.org/2000/svg">
<path d="M7 0.75C10.8555 0.75 14 3.89453 14 7.75C14 11.6328 10.8555 14.75 7 14.75C3.11719 14.75 0 11.6328 0 7.75C0 3.89453 3.11719 0.75 7 0.75ZM7 13.875C10.3633 13.875 13.125 11.1406 13.125 7.75C13.125 4.38672 10.3633 1.625 7 1.625C3.60938 1.625 0.875 4.38672 0.875 7.75C0.875 11.1406 3.60938 13.875 7 13.875ZM9.67969 8.81641C9.87109 8.92578 9.95312 9.19922 9.81641 9.39062C9.73438 9.55469 9.59766 9.60938 9.46094 9.60938C9.37891 9.60938 9.29688 9.60938 9.24219 9.55469L6.78125 8.13281C6.64453 8.05078 6.5625 7.91406 6.5625 7.75V3.8125C6.5625 3.59375 6.75391 3.375 7 3.375C7.21875 3.375 7.4375 3.59375 7.4375 3.8125V7.50391L9.67969 8.81641Z" fill="#F67E18"/>
</svg>
