<svg width="16" height="16" viewBox="0 0 16 16" fill="none" xmlns="http://www.w3.org/2000/svg">
<path d="M8 0C12.4062 0 16 3.59375 16 8C16 12.4375 12.4062 16 8 16C3.5625 16 0 12.4375 0 8C0 3.59375 3.5625 0 8 0ZM11.4375 10C11.6562 9.65625 11.5312 9.1875 11.1875 9L8.75 7.59375V3.75C8.75 3.34375 8.40625 3 8 3C7.5625 3 7.25 3.34375 7.25 3.75V8C7.25 8.28125 7.375 8.53125 7.625 8.65625L10.4375 10.2812C10.5312 10.3438 10.6562 10.375 10.8125 10.375C11.0625 10.375 11.3125 10.25 11.4375 10Z" fill="#222222"/>
</svg>
