<svg width="14" height="14" viewBox="0 0 14 14" fill="none" xmlns="http://www.w3.org/2000/svg">
<path d="M7 0.1875C3.39062 0.1875 0.4375 3.14062 0.4375 6.75C0.4375 10.3867 3.44531 13.3125 7.02734 13.3125C10.6367 13.3125 13.5625 10.3867 13.5625 6.75C13.5625 5.35547 13.125 4.01562 12.3047 2.86719C12.0859 2.59375 11.6758 2.51172 11.375 2.73047C11.1016 2.94922 11.0195 3.35938 11.2383 3.66016C11.9219 4.5625 12.25 5.62891 12.25 6.75C12.25 9.64844 9.89844 12 7 12C4.12891 12 1.75 9.64844 1.75 6.75C1.75 4.09766 3.77344 1.88281 6.34375 1.55469V3.03125C6.34375 3.41406 6.64453 3.6875 7 3.6875C7.38281 3.6875 7.65625 3.41406 7.65625 3.03125V0.84375C7.65625 0.488281 7.38281 0.1875 7 0.1875ZM7.46484 7.21484L9.65234 5.02734C9.89844 4.75391 9.89844 4.34375 9.65234 4.09766C9.37891 3.82422 8.96875 3.82422 8.72266 4.09766L6.5625 6.28516C6.28906 6.53125 6.28906 6.94141 6.5625 7.21484C6.67188 7.32422 6.83594 7.40625 7.02734 7.40625C7.19141 7.40625 7.35547 7.32422 7.46484 7.21484Z" fill="#222222"/>
</svg>
